# Blender 5.0.1
# www.blender.org
mtllib tile.mtl
o Cube
v -0.400275 -0.075000 0.500000
v -0.500000 -0.075000 0.400275
v -0.426085 -0.075000 0.496602
v -0.450137 -0.075000 0.486639
v -0.470791 -0.075000 0.470791
v -0.486639 -0.075000 0.450137
v -0.496602 -0.075000 0.426085
v -0.500000 0.075000 0.400275
v -0.400275 0.075000 0.500000
v -0.496602 0.075000 0.426085
v -0.486639 0.075000 0.450137
v -0.470791 0.075000 0.470791
v -0.450137 0.075000 0.486639
v -0.426085 0.075000 0.496602
v -0.500000 -0.075000 -0.400275
v -0.400275 -0.075000 -0.500000
v -0.496602 -0.075000 -0.426085
v -0.486639 -0.075000 -0.450137
v -0.470791 -0.075000 -0.470791
v -0.450137 -0.075000 -0.486639
v -0.426085 -0.075000 -0.496602
v -0.400275 0.075000 -0.500000
v -0.500000 0.075000 -0.400275
v -0.426085 0.075000 -0.496602
v -0.450137 0.075000 -0.486639
v -0.470791 0.075000 -0.470791
v -0.486639 0.075000 -0.450137
v -0.496602 0.075000 -0.426085
v 0.500000 -0.075000 0.400275
v 0.400275 -0.075000 0.500000
v 0.496602 -0.075000 0.426085
v 0.486639 -0.075000 0.450137
v 0.470791 -0.075000 0.470791
v 0.450137 -0.075000 0.486639
v 0.426085 -0.075000 0.496602
v 0.400275 0.075000 0.500000
v 0.500000 0.075000 0.400275
v 0.426085 0.075000 0.496602
v 0.450137 0.075000 0.486639
v 0.470791 0.075000 0.470791
v 0.486639 0.075000 0.450137
v 0.496602 0.075000 0.426085
v 0.400275 -0.075000 -0.500000
v 0.500000 -0.075000 -0.400275
v 0.426085 -0.075000 -0.496602
v 0.450137 -0.075000 -0.486639
v 0.470791 -0.075000 -0.470791
v 0.486639 -0.075000 -0.450137
v 0.496602 -0.075000 -0.426085
v 0.500000 0.075000 -0.400275
v 0.400275 0.075000 -0.500000
v 0.496602 0.075000 -0.426085
v 0.486639 0.075000 -0.450137
v 0.470791 0.075000 -0.470791
v 0.450137 0.075000 -0.486639
v 0.426085 0.075000 -0.496602
vn -0.0654 -0.0000 0.9979
vn -0.2588 -0.0000 0.9659
vn -0.5000 -0.0000 0.8660
vn -0.7071 -0.0000 0.7071
vn -0.8660 -0.0000 0.5000
vn -0.9659 -0.0000 0.2588
vn -0.9979 -0.0000 0.0654
vn -0.0654 -0.0000 -0.9979
vn -0.2588 -0.0000 -0.9659
vn -0.5000 -0.0000 -0.8660
vn -0.7071 -0.0000 -0.7071
vn -0.8660 -0.0000 -0.5000
vn -0.9659 -0.0000 -0.2588
vn -0.9979 -0.0000 -0.0654
vn 0.9979 -0.0000 -0.0654
vn 0.9659 -0.0000 -0.2588
vn 0.8660 -0.0000 -0.5000
vn 0.7071 -0.0000 -0.7071
vn 0.5000 -0.0000 -0.8660
vn 0.2588 -0.0000 -0.9659
vn 0.0654 -0.0000 -0.9979
vn 0.0654 -0.0000 0.9979
vn 0.2588 -0.0000 0.9659
vn 0.5000 -0.0000 0.8660
vn 0.7071 -0.0000 0.7071
vn 0.8660 -0.0000 0.5000
vn 0.9659 -0.0000 0.2588
vn 0.9979 -0.0000 0.0654
vn -0.0000 -1.0000 -0.0000
vn -0.0000 1.0000 -0.0000
vt 0.375000 0.975069
vt 0.625000 0.975069
vt 0.625000 0.981521
vt 0.375000 0.981521
vt 0.625000 0.987534
vt 0.375000 0.987534
vt 0.625000 1.000000
vt 0.375000 1.000000
vt 0.375000 0.000000
vt 0.625000 0.000000
vt 0.625000 0.012466
vt 0.375000 0.012466
vt 0.625000 0.018479
vt 0.375000 0.018479
vt 0.625000 0.024931
vt 0.375000 0.024931
vt 0.625000 0.274931
vt 0.375000 0.274931
vt 0.375000 0.268479
vt 0.625000 0.268479
vt 0.375000 0.262466
vt 0.625000 0.262466
vt 0.375000 0.250000
vt 0.625000 0.250000
vt 0.375000 0.237534
vt 0.625000 0.237534
vt 0.375000 0.231521
vt 0.625000 0.231521
vt 0.375000 0.225069
vt 0.625000 0.225069
vt 0.625000 0.524931
vt 0.375000 0.524931
vt 0.374717 0.518479
vt 0.625283 0.518479
vt 0.373887 0.512466
vt 0.626113 0.512466
vt 0.372566 0.502434
vt 0.627434 0.502434
vt 0.370845 0.492803
vt 0.629155 0.492803
vt 0.368840 0.487964
vt 0.631160 0.487964
vt 0.366690 0.483379
vt 0.633310 0.483379
vt 0.633310 0.766621
vt 0.366690 0.766621
vt 0.368840 0.762036
vt 0.631160 0.762036
vt 0.370845 0.757197
vt 0.629155 0.757197
vt 0.372566 0.747566
vt 0.627434 0.747566
vt 0.373887 0.737534
vt 0.626113 0.737534
vt 0.374717 0.731521
vt 0.625283 0.731521
vt 0.375000 0.725069
vt 0.625000 0.725069
vt 0.125000 0.524931
vt 0.125850 0.518479
vt 0.128340 0.512466
vt 0.132302 0.507302
vt 0.137466 0.503340
vt 0.143479 0.500850
vt 0.149931 0.500000
vt 0.149931 0.750000
vt 0.143479 0.749151
vt 0.137466 0.746660
vt 0.132302 0.742698
vt 0.128340 0.737534
vt 0.125850 0.731521
vt 0.125000 0.725069
vt 0.850069 0.500000
vt 0.856521 0.500850
vt 0.862534 0.503340
vt 0.867698 0.507302
vt 0.871660 0.512466
vt 0.874150 0.518479
vt 0.875000 0.524931
vt 0.875000 0.725069
vt 0.874151 0.731521
vt 0.871660 0.737534
vt 0.867698 0.742698
vt 0.862534 0.746660
vt 0.856521 0.749151
vt 0.850069 0.750000
s 1
usemtl Material.001
f 1/1/1 9/2/1 14/3/2 3/4/2
f 3/4/2 14/3/2 13/5/3 4/6/3
f 4/6/3 13/5/3 12/7/4 5/8/4
f 5/9/4 12/10/4 11/11/5 6/12/5
f 6/12/5 11/11/5 10/13/6 7/14/6
f 7/14/6 10/13/6 8/15/7 2/16/7
f 22/17/8 16/18/8 21/19/9 24/20/9
f 24/20/9 21/19/9 20/21/10 25/22/10
f 25/22/10 20/21/10 19/23/11 26/24/11
f 26/24/11 19/23/11 18/25/12 27/26/12
f 27/26/12 18/25/12 17/27/13 28/28/13
f 28/28/13 17/27/13 15/29/14 23/30/14
f 50/31/15 44/32/15 49/33/16 52/34/16
f 52/34/16 49/33/16 48/35/17 53/36/17
f 53/36/17 48/35/17 47/37/18 54/38/18
f 54/38/18 47/37/18 46/39/19 55/40/19
f 55/40/19 46/39/19 45/41/20 56/42/20
f 56/42/20 45/41/20 43/43/21 51/44/21
f 36/45/22 30/46/22 35/47/23 38/48/23
f 38/48/23 35/47/23 34/49/24 39/50/24
f 39/50/24 34/49/24 33/51/25 40/52/25
f 40/52/25 33/51/25 32/53/26 41/54/26
f 41/54/26 32/53/26 31/55/27 42/56/27
f 42/56/27 31/55/27 29/57/28 37/58/28
f 15/59/29 17/60/29 18/61/29 19/62/29 20/63/29 21/64/29 16/65/29 43/43/29 45/41/29 46/39/29 47/37/29 48/35/29 49/33/29 44/32/29 29/57/29 31/55/29 32/53/29 33/51/29 34/49/29 35/47/29 30/46/29 1/66/29 3/67/29 4/68/29 5/69/29 6/70/29 7/71/29 2/72/29
f 2/16/7 8/15/7 23/30/14 15/29/14
f 30/46/22 36/45/22 9/2/1 1/1/1
f 50/31/30 52/34/30 53/36/30 54/38/30 55/40/30 56/42/30 51/44/30 22/73/30 24/74/30 25/75/30 26/76/30 27/77/30 28/78/30 23/79/30 8/80/30 10/81/30 11/82/30 12/83/30 13/84/30 14/85/30 9/86/30 36/45/30 38/48/30 39/50/30 40/52/30 41/54/30 42/56/30 37/58/30
f 16/18/8 22/17/8 51/44/21 43/43/21
f 44/32/15 50/31/15 37/58/28 29/57/28
